<svg version="1.2" xmlns="http://www.w3.org/2000/svg" viewBox="0 0 312 293" width="312" height="293">
	<title>L - con letras</title>
	<style>
		.s0 { fill: #000000;stroke: #000000;stroke-width: 2 } 
		.s1 { fill: none;stroke: #000000;stroke-width: 6 } 
	</style>
	<g id="Carpeta 1">
		<path id="Capa 1" class="s0" d="m75.6 108.3c0.1 0.2 29-0.5 35.8-0.5 1.7 0-0.1 2.2-0.1 2.2-0.4-0.5-12-1.4-13.3 8-0.1 15.4-0.9 45.8 1 52 1 3.1 7.3 12.8 26.6 12.3 1.6-0.1-13.2 3.9-24.5-0.3-0.9-0.3-12.3-8.1-12.5-12.6-0.8-13.8-1.3-46.4-1.3-52.6 0-4-6.1-7-11.4-7-0.2 0.5-0.3-1.7-0.3-1.5z"/>
		<path id="Capa 2" class="s0" d="m148 115c-1.6 1.5-4.4 20.4-4.4 20.4 0 0-0.4-22.8-6.7-24.3-4.9-1.1-4.9-1.1-4.9-1.1v-2h24c0 0 0 2.4 0 2.3 0 0-4 0.7-8 4.7z"/>
		<path id="Capa 3" class="s0" d="m164.3 107.9c0.4-0.1 11.8 0.1 21.7 0.1 0.1 7.4-0.1 62.5 0 64 0.1 1.1 1.1 11.4 12.9 10.3 0 0.6 0-0.4 0 1.7 0 0.5-14.8-0.4-33.9 0-0.2-2.1 0-2 0-2 3.7-0.1 10.2-0.7 11-10 0.2-26 0.4-45.5 0-53-0.3-5.7-3.7-9-11.1-8.9-1 0.1-0.7-2.3-0.6-2.2z"/>
		<path id="Capa 4" class="s0" d="m205 108.6c8.9-0.5 24-0.7 24-0.7v24.1c0 0-3-20.9-24-23.4z"/>
		<path id="Capa 5" class="s0" d="m213 136c2.5 1.5 1.1 33.7 0.8 31.4-0.9-7.1-6.2-19.1-12.8-19.8 2.8-1.6 14-2.2 12-11.6z"/>
	</g>
	<path id="Forma 1" class="s1" d="m277.8 149c-6.9 45.8-80.3 125.4-129 120.4-47.3-9-113.3-74.4-119.3-124.4-4.8-37.6 80.3-123.3 121.3-123.3 44.8-3.4 130.4 80.7 127 127.3z"/>
</svg>